<?xml version="1.0" standalone="no"?>
<!DOCTYPE svg PUBLIC "-//W3C//DTD SVG 20010904//EN"
 "http://www.w3.org/TR/2001/REC-SVG-20010904/DTD/svg10.dtd">
<svg version="1.0" xmlns="http://www.w3.org/2000/svg"
 width="80.000000pt" height="80.000000pt" viewBox="0 0 80.000000 80.000000"
 preserveAspectRatio="xMidYMid meet">
<metadata>
Created by potrace 1.14, written by Peter Selinger 2001-2017
</metadata>
<g transform="translate(0.000000,80.000000) scale(0.100000,-0.100000)"
fill="#000000" stroke="none">
<path d="M237 761 c-88 -45 -156 -108 -142 -131 3 -5 34 14 69 42 41 33 86 60
125 73 35 11 63 25 64 30 4 22 -60 14 -116 -14z"/>
<path d="M390 780 c0 -5 7 -10 16 -10 8 0 12 5 9 10 -3 6 -10 10 -16 10 -5 0
-9 -4 -9 -10z"/>
<path d="M445 780 c-3 -5 17 -16 45 -24 69 -20 147 -64 175 -98 25 -30 45 -36
45 -15 0 24 -74 85 -140 116 -65 31 -114 39 -125 21z"/>
<path d="M279 728 c-62 -28 -39 -43 36 -23 66 17 115 20 115 6 0 -5 -9 -7 -20
-4 -28 7 -72 -5 -67 -20 2 -7 26 -12 58 -13 72 -2 120 -18 174 -60 49 -37 72
-29 34 12 -24 26 -117 74 -143 74 -8 0 -17 4 -20 9 -3 5 11 4 32 -1 87 -23
116 -5 37 24 -66 23 -179 22 -236 -4z"/>
<path d="M206 681 c-4 -7 -5 -15 -2 -18 9 -9 19 4 14 18 -4 11 -6 11 -12 0z"/>
<path d="M290 675 c0 -8 7 -15 15 -15 9 0 12 6 9 15 -4 8 -10 15 -15 15 -5 0
-9 -7 -9 -15z"/>
<path d="M590 670 c0 -5 5 -10 10 -10 6 0 10 5 10 10 0 6 -4 10 -10 10 -5 0
-10 -4 -10 -10z"/>
<path d="M187 611 c-53 -56 -77 -106 -80 -167 -3 -64 14 -54 32 19 17 64 64
137 102 158 22 11 26 39 5 39 -7 0 -34 -22 -59 -49z"/>
<path d="M395 649 c-10 -15 3 -25 16 -12 7 7 7 13 1 17 -6 3 -14 1 -17 -5z"/>
<path d="M132 623 c-32 -45 -60 -107 -66 -143 -13 -75 -13 -111 0 -127 16 -21
16 -20 19 32 6 102 22 148 72 211 18 23 29 44 26 48 -13 13 -32 5 -51 -21z"/>
<path d="M289 630 c-69 -36 -153 -159 -133 -192 9 -15 31 10 38 42 7 39 85
117 128 128 18 4 34 16 36 25 5 23 -23 21 -69 -3z"/>
<path d="M445 641 c-3 -5 19 -21 49 -34 57 -26 104 -76 122 -129 12 -37 28
-43 32 -12 9 65 -173 223 -203 175z"/>
<path d="M642 641 c-8 -5 -2 -20 18 -51 38 -57 61 -126 63 -190 3 -79 22 -59
22 23 -1 53 -7 84 -23 117 -32 66 -66 110 -80 101z"/>
<path d="M395 600 c-3 -5 1 -10 9 -10 9 0 16 5 16 10 0 6 -4 10 -9 10 -6 0
-13 -4 -16 -10z"/>
<path d="M451 596 c-9 -10 -5 -16 17 -25 68 -29 111 -93 115 -173 3 -69 21
-64 25 6 4 80 -32 140 -110 184 -30 17 -39 18 -47 8z"/>
<path d="M65 590 c-3 -5 1 -10 9 -10 9 0 16 5 16 10 0 6 -4 10 -9 10 -6 0 -13
-4 -16 -10z"/>
<path d="M290 582 c-32 -22 -46 -38 -71 -85 -27 -51 -31 -157 -6 -157 9 0 13
18 13 59 1 78 33 130 102 165 17 9 32 21 32 26 0 16 -43 11 -70 -8z"/>
<path d="M720 590 c0 -5 5 -10 10 -10 6 0 10 5 10 10 0 6 -4 10 -10 10 -5 0
-10 -4 -10 -10z"/>
<path d="M28 533 c-17 -44 -22 -192 -6 -237 18 -55 42 -62 31 -10 -10 49 -9
187 1 237 10 45 -8 52 -26 10z"/>
<path d="M640 550 c0 -5 5 -10 10 -10 6 0 10 5 10 10 0 6 -4 10 -10 10 -5 0
-10 -4 -10 -10z"/>
<path d="M755 518 c11 -45 12 -185 1 -232 -7 -31 -6 -38 5 -34 50 17 48 298
-3 298 -7 0 -8 -11 -3 -32z"/>
<path d="M668 505 c-3 -3 -1 -25 4 -48 13 -58 2 -133 -27 -186 -14 -24 -23
-46 -21 -49 13 -12 39 13 58 55 27 61 31 194 7 218 -8 9 -18 13 -21 10z"/>
<path d="M253 438 c-13 -17 -15 -86 -3 -93 6 -4 10 11 10 34 0 23 3 41 6 41 3
0 23 -18 44 -40 39 -41 59 -50 61 -27 0 6 2 27 4 44 2 18 -1 35 -6 38 -8 5
-14 -41 -10 -70 1 -5 -19 11 -43 38 -51 52 -50 52 -63 35z"/>
<path d="M401 435 c-7 -9 -7 -38 -2 -81 0 -6 23 -12 50 -13 40 -1 52 3 64 19
14 21 12 66 -4 76 -16 10 -101 9 -108 -1z m100 -22 c6 -6 8 -21 4 -33 -6 -18
-13 -21 -48 -18 -42 3 -47 12 -38 59 2 10 71 3 82 -8z"/>
<path d="M540 396 c0 -25 5 -48 10 -51 6 -4 10 13 10 44 0 28 -4 51 -10 51 -5
0 -10 -20 -10 -44z"/>
<path d="M150 401 c0 -6 5 -13 10 -16 6 -3 10 1 10 9 0 9 -4 16 -10 16 -5 0
-10 -4 -10 -9z"/>
<path d="M635 400 c-3 -5 1 -10 9 -10 9 0 16 5 16 10 0 6 -4 10 -9 10 -6 0
-13 -4 -16 -10z"/>
<path d="M110 350 c0 -5 5 -10 10 -10 6 0 10 5 10 10 0 6 -4 10 -10 10 -5 0
-10 -4 -10 -10z"/>
<path d="M156 352 c-8 -14 39 -105 70 -134 37 -34 110 -71 124 -63 18 11 11
21 -26 34 -48 17 -117 87 -130 130 -9 34 -27 50 -38 33z"/>
<path d="M606 306 c-27 -56 -74 -99 -126 -118 -30 -10 -38 -22 -20 -33 13 -8
100 38 126 67 34 36 64 91 64 116 0 37 -16 25 -44 -32z"/>
<path d="M76 301 c-4 -5 -2 -12 3 -15 5 -4 12 -2 15 3 4 5 2 12 -3 15 -5 4
-12 2 -15 -3z"/>
<path d="M125 300 c-9 -14 29 -81 67 -116 29 -28 85 -63 113 -71 66 -18 68 8
3 31 -57 20 -144 100 -154 142 -6 25 -18 31 -29 14z"/>
<path d="M220 300 c0 -5 5 -10 10 -10 6 0 10 5 10 10 0 6 -4 10 -10 10 -5 0
-10 -4 -10 -10z"/>
<path d="M565 300 c-3 -5 1 -10 9 -10 9 0 16 5 16 10 0 6 -4 10 -9 10 -6 0
-13 -4 -16 -10z"/>
<path d="M710 300 c0 -5 7 -10 16 -10 8 0 12 5 9 10 -3 6 -10 10 -16 10 -5 0
-9 -4 -9 -10z"/>
<path d="M260 258 c1 -29 87 -68 150 -68 43 0 140 46 140 66 0 16 -26 19 -35
4 -4 -6 -23 -17 -43 -26 -48 -20 -124 -14 -162 15 -33 24 -50 27 -50 9z"/>
<path d="M100 243 c0 -18 43 -78 75 -105 55 -46 183 -96 173 -68 -2 7 -27 21
-55 32 -57 21 -136 85 -159 129 -16 32 -34 38 -34 12z"/>
<path d="M666 223 c-13 -21 -34 -48 -47 -60 -21 -19 -99 -59 -152 -77 -21 -7
-13 -26 11 -26 33 0 138 58 173 96 60 66 78 104 47 104 -4 0 -19 -17 -32 -37z"/>
<path d="M65 210 c-3 -5 1 -10 9 -10 9 0 16 5 16 10 0 6 -4 10 -9 10 -6 0 -13
-4 -16 -10z"/>
<path d="M720 210 c0 -5 4 -10 9 -10 6 0 13 5 16 10 3 6 -1 10 -9 10 -9 0 -16
-4 -16 -10z"/>
<path d="M585 180 c3 -5 10 -10 16 -10 5 0 9 5 9 10 0 6 -7 10 -16 10 -8 0
-12 -4 -9 -10z"/>
<path d="M95 171 c-19 -32 151 -151 222 -154 50 -3 40 16 -18 33 -58 18 -138
66 -161 98 -18 25 -35 34 -43 23z"/>
<path d="M655 138 c-44 -43 -97 -74 -159 -92 -48 -14 -60 -36 -19 -36 63 0
243 116 243 156 0 24 -23 14 -65 -28z"/>
<path d="M395 160 c-3 -5 1 -10 10 -10 9 0 13 5 10 10 -3 6 -8 10 -10 10 -2 0
-7 -4 -10 -10z"/>
<path d="M516 151 c-4 -5 -25 -13 -49 -17 -23 -4 -45 -9 -49 -10 -5 -1 -12 -2
-18 -3 -5 0 -10 -6 -10 -12 0 -8 17 -10 54 -6 56 6 116 30 116 47 0 13 -37 13
-44 1z"/>
<path d="M396 71 c-4 -5 -2 -12 3 -15 5 -4 12 -2 15 3 4 5 2 12 -3 15 -5 4
-12 2 -15 -3z"/>
<path d="M395 20 c3 -5 10 -10 16 -10 5 0 9 5 9 10 0 6 -7 10 -16 10 -8 0 -12
-4 -9 -10z"/>
</g>
</svg>
