<svg width="108" height="126" fill="none" xmlns="http://www.w3.org/2000/svg" version="1.1"><rect x=".4" y="54.353" width="75.957" height="75.957" rx="15" transform="rotate(-19.498 .4 54.353)" fill="#493B64"/><g filter="url(#filter0_b)"><rect x="9" y="24.128" width="78.609" height="78.609" rx="15" transform="rotate(-17.873 9 24.128)" fill="url(#paint0_linear)"/><g clip-path="url(#clip0)"><path d="M37.177 62.683a1.129 1.129 0 01-1.33-.522c-3.405-6.076-4.226-13.111-2.31-19.809a1.127 1.127 0 112.168.62c-1.749 6.115-1 12.538 2.111 18.086a1.128 1.128 0 01-.639 1.625z" fill="url(#paint1_linear)"/><path d="M37.082 38.593a1.128 1.128 0 01-1.335-1.617 25.869 25.869 0 0110.04-10.113c5.173-2.897 10.988-3.927 16.825-2.979a1.129 1.129 0 01-.362 2.228c-5.329-.868-10.641.073-15.359 2.72a23.612 23.612 0 00-9.166 9.231 1.127 1.127 0 01-.643.53z" fill="url(#paint2_linear)"/><path d="M80.446 38.43a1.128 1.128 0 01-1.33-.523 23.727 23.727 0 00-11.901-10.423 1.128 1.128 0 11.831-2.097 25.99 25.99 0 0113.039 11.417 1.128 1.128 0 01-.64 1.625z" fill="url(#paint3_linear)"/><path d="M82.585 43.415a1.129 1.129 0 01-1.427-.748 23.82 23.82 0 00-2.029-4.768 1.128 1.128 0 011.969-1.102 26.121 26.121 0 012.22 5.22c.178.588-.15 1.21-.733 1.398z" fill="url(#paint4_linear)"/><path d="M37.74 63.612a1.129 1.129 0 01-1.304-.48c-.198-.319-.39-.646-.576-.977a1.129 1.129 0 011.968-1.102c.17.302.345.6.526.892a1.128 1.128 0 01-.614 1.667z" fill="url(#paint5_linear)"/><path d="M60.074 75.33a1.128 1.128 0 01-1.38-1.522c3.36-7.752 2.92-16.419-1.205-23.778a1.128 1.128 0 011.968-1.102c4.472 7.977 4.948 17.373 1.307 25.776-.135.31-.391.53-.69.625z" fill="url(#paint6_linear)"/><path d="M67.174 73.907a1.127 1.127 0 01-1.426-1.394c2.5-8.438 1.364-18.675-2.827-25.474-1.63-2.664-4.353-3.449-6.942-1.994-2.499 1.4-3.327 4.377-1.928 6.923 3.862 7.026 3.875 15.354.033 22.274a1.13 1.13 0 01-1.972-1.095c3.463-6.238 3.449-13.75-.038-20.093-2.013-3.664-.81-7.953 2.801-9.977 3.628-2.03 7.724-.888 9.968 2.782 4.506 7.31 5.739 18.28 3.067 27.294-.11.371-.394.643-.736.754z" fill="url(#paint7_linear)"/><path d="M47.5 72.628a1.126 1.126 0 01-1.295-1.684A14.417 14.417 0 0047.5 57.83a1.128 1.128 0 01.63-1.465 1.142 1.142 0 011.465.632 16.674 16.674 0 01-1.492 15.168 1.124 1.124 0 01-.602.463z" fill="url(#paint8_linear)"/><path d="M71.713 48.757a1.128 1.128 0 01-1.387-.64 39.553 39.553 0 00-2.051-4.212 11.209 11.209 0 00-6.75-5.283 11.205 11.205 0 00-8.574 1.018c-4.305 2.413-6.569 7.458-5.505 12.271.133.608-.24 1.229-.859 1.344a1.128 1.128 0 01-1.344-.858c-1.276-5.776 1.44-11.83 6.604-14.725 6.514-3.647 14.779-1.321 18.43 5.19l.034.066a41.888 41.888 0 012.098 4.323 1.128 1.128 0 01-.696 1.506z" fill="url(#paint9_linear)"/><path d="M74.387 69.86a1.129 1.129 0 01-1.462-1.234 38.863 38.863 0 00-.853-15.314 1.137 1.137 0 01.81-1.374 1.128 1.128 0 011.375.809 41.128 41.128 0 01.902 16.198 1.128 1.128 0 01-.772.914z" fill="url(#paint10_linear)"/><path d="M42.375 69.134a1.127 1.127 0 01-1.305-1.668 8.203 8.203 0 00.257-8.22 1.157 1.157 0 01-.074-.115c-4.928-8.79-2.47-19.834 5.714-25.688a1.129 1.129 0 011.313 1.835c-7.21 5.157-9.4 14.863-5.128 22.627.028.038.054.078.077.119a10.459 10.459 0 01-.243 10.632c-.147.236-.366.4-.611.478z" fill="url(#paint11_linear)"/><path d="M80.932 61.78a1.127 1.127 0 01-1.473-1.015c-.36-6.978-2.278-13.625-5.703-19.76a1.045 1.045 0 01-.043-.07c-4.056-7.234-12.714-10.638-20.592-8.098l-.013.005a1.128 1.128 0 01-.694-2.147l.015-.005c8.87-2.86 18.615.951 23.211 9.07.016.024.03.047.045.073 3.62 6.459 5.648 13.462 6.027 20.816.027.52-.306.977-.78 1.13z" fill="url(#paint12_linear)"/><path opacity=".8" d="M83.54 39.018L32.016 55.634l1.384 4.294 51.525-16.616-1.385-4.294z" fill="url(#paint13_linear)"/></g><rect x="8.371" y="23.805" width="79.609" height="79.609" rx="15.5" transform="rotate(-17.873 8.37 23.805)" stroke="url(#paint14_linear)"/></g><defs><linearGradient id="paint0_linear" x1="48.305" y1="24.128" x2="48.305" y2="102.737" gradientUnits="userSpaceOnUse"><stop stop-color="#3A74A5" stop-opacity=".6"/><stop offset="1" stop-color="#fff" stop-opacity=".2"/></linearGradient><linearGradient id="paint1_linear" x1="32.272" y1="42.234" x2="38.707" y2="62.19" gradientUnits="userSpaceOnUse"><stop stop-color="#fff" stop-opacity=".6"/><stop offset="1" stop-color="#fff" stop-opacity=".2"/></linearGradient><linearGradient id="paint2_linear" x1="47.782" y1="25.672" x2="50.548" y2="34.251" gradientUnits="userSpaceOnUse"><stop stop-color="#fff" stop-opacity=".6"/><stop offset="1" stop-color="#fff" stop-opacity=".2"/></linearGradient><linearGradient id="paint3_linear" x1="71.338" y1="24.056" x2="76.394" y2="39.736" gradientUnits="userSpaceOnUse"><stop stop-color="#fff" stop-opacity=".6"/><stop offset="1" stop-color="#fff" stop-opacity=".2"/></linearGradient><linearGradient id="paint4_linear" x1="80.002" y1="36.198" x2="82.353" y2="43.489" gradientUnits="userSpaceOnUse"><stop stop-color="#fff" stop-opacity=".6"/><stop offset="1" stop-color="#fff" stop-opacity=".2"/></linearGradient><linearGradient id="paint5_linear" x1="36.611" y1="60.492" x2="37.628" y2="63.648" gradientUnits="userSpaceOnUse"><stop stop-color="#fff" stop-opacity=".6"/><stop offset="1" stop-color="#fff" stop-opacity=".2"/></linearGradient><linearGradient id="paint6_linear" x1="55.344" y1="49.302" x2="63.392" y2="74.259" gradientUnits="userSpaceOnUse"><stop stop-color="#fff" stop-opacity=".6"/><stop offset="1" stop-color="#fff" stop-opacity=".2"/></linearGradient><linearGradient id="paint7_linear" x1="53.481" y1="43.356" x2="63.694" y2="75.029" gradientUnits="userSpaceOnUse"><stop stop-color="#fff" stop-opacity=".6"/><stop offset="1" stop-color="#fff" stop-opacity=".2"/></linearGradient><linearGradient id="paint8_linear" x1="45.52" y1="57.205" x2="50.212" y2="71.754" gradientUnits="userSpaceOnUse"><stop stop-color="#fff" stop-opacity=".6"/><stop offset="1" stop-color="#fff" stop-opacity=".2"/></linearGradient><linearGradient id="paint9_linear" x1="54.536" y1="36.524" x2="59.727" y2="52.622" gradientUnits="userSpaceOnUse"><stop stop-color="#fff" stop-opacity=".6"/><stop offset="1" stop-color="#fff" stop-opacity=".2"/></linearGradient><linearGradient id="paint10_linear" x1="70.915" y1="52.571" x2="76.292" y2="69.245" gradientUnits="userSpaceOnUse"><stop stop-color="#fff" stop-opacity=".6"/><stop offset="1" stop-color="#fff" stop-opacity=".2"/></linearGradient><linearGradient id="paint11_linear" x1="39.821" y1="35.691" x2="49.831" y2="66.73" gradientUnits="userSpaceOnUse"><stop stop-color="#fff" stop-opacity=".6"/><stop offset="1" stop-color="#fff" stop-opacity=".2"/></linearGradient><linearGradient id="paint12_linear" x1="61.537" y1="27.753" x2="73.303" y2="64.24" gradientUnits="userSpaceOnUse"><stop stop-color="#fff" stop-opacity=".6"/><stop offset="1" stop-color="#fff" stop-opacity=".2"/></linearGradient><linearGradient id="paint13_linear" x1="57.778" y1="47.326" x2="61" y2="57.501" gradientUnits="userSpaceOnUse"><stop stop-color="#F4333D"/><stop offset="1" stop-color="#fff"/></linearGradient><linearGradient id="paint14_linear" x1="48.305" y1="24.128" x2="48.305" y2="102.737" gradientUnits="userSpaceOnUse"><stop stop-color="#3A74A5" stop-opacity=".6"/><stop offset="1" stop-color="#fff" stop-opacity=".2"/></linearGradient><clipPath id="clip0"><path fill="#fff" transform="rotate(-17.873 114.003 -61.574)" d="M0 0h54.138v54.138H0z"/></clipPath><filter id="filter0_b" x="6" y="-2.999" width="104.942" height="104.942" filterUnits="userSpaceOnUse" color-interpolation-filters="sRGB"><feFlood flood-opacity="0" result="BackgroundImageFix"/><feGaussianBlur in="BackgroundImage" stdDeviation="1.5"/><feComposite in2="SourceAlpha" operator="in" result="effect1_backgroundBlur"/><feBlend in="SourceGraphic" in2="effect1_backgroundBlur" result="shape"/></filter></defs></svg>
