<svg width="201" height="58" viewBox="0 0 201 58" fill="none" xmlns="http://www.w3.org/2000/svg">
<g filter="url(#filter0_b)">
<path d="M0 10.001C0 4.47813 4.47715 0.000976562 10 0.000976562H191C196.523 0.000976562 201 4.47813 201 10.001V48.001C201 53.5238 196.523 58.001 191 58.001H10C4.47715 58.001 0 53.5238 0 48.001V10.001Z" fill="url(#paint0_linear)"/>
<path d="M24.434 14.839C24.4247 14.755 24.42 14.629 24.42 14.461C24.42 14.153 24.4433 13.8496 24.49 13.551C24.5833 13.0283 24.7747 12.6363 25.064 12.375C25.3533 12.1043 25.7313 11.969 26.198 11.969L26.1 12.529C25.8573 12.529 25.6707 12.5943 25.54 12.725C25.4093 12.8556 25.3207 13.0516 25.274 13.313L25.218 13.635H25.918L25.708 14.839H24.434ZM26.324 14.839C26.3147 14.755 26.31 14.629 26.31 14.461C26.31 14.153 26.3333 13.8496 26.38 13.551C26.4733 13.0283 26.6647 12.6363 26.954 12.375C27.2433 12.1043 27.6213 11.969 28.088 11.969L27.99 12.529C27.7473 12.529 27.5607 12.5943 27.43 12.725C27.2993 12.8556 27.2107 13.0516 27.164 13.313L27.108 13.635H27.808L27.598 14.839H26.324ZM37.3063 13.131L32.9943 19.263L32.3363 23.001H31.0483L31.7063 19.263L29.5363 13.131H31.0203L32.5883 17.905L35.8503 13.131H37.3063ZM41.8812 15.217C42.5252 15.217 43.0945 15.343 43.5892 15.595C44.0838 15.847 44.4665 16.211 44.7372 16.687C45.0172 17.1536 45.1572 17.7136 45.1572 18.367C45.1572 18.6563 45.1292 18.955 45.0732 19.263C44.9332 20.047 44.6438 20.7283 44.2052 21.307C43.7758 21.8856 43.2438 22.329 42.6092 22.637C41.9745 22.945 41.2932 23.099 40.5652 23.099C39.5665 23.099 38.7638 22.819 38.1572 22.259C37.5598 21.699 37.2612 20.929 37.2612 19.949C37.2612 19.669 37.2892 19.375 37.3452 19.067C37.4852 18.283 37.7745 17.6016 38.2132 17.023C38.6518 16.435 39.1885 15.987 39.8232 15.679C40.4672 15.371 41.1532 15.217 41.8812 15.217ZM41.7132 16.337C41.2558 16.337 40.8125 16.4396 40.3832 16.645C39.9632 16.8503 39.5945 17.1676 39.2772 17.597C38.9692 18.017 38.7592 18.5396 38.6472 19.165C38.6005 19.445 38.5772 19.6783 38.5772 19.865C38.5772 20.5556 38.7778 21.083 39.1792 21.447C39.5805 21.8016 40.0938 21.979 40.7192 21.979C41.1765 21.979 41.6152 21.8763 42.0352 21.671C42.4552 21.4656 42.8192 21.153 43.1272 20.733C43.4445 20.3036 43.6592 19.781 43.7712 19.165C43.8178 18.885 43.8412 18.6516 43.8412 18.465C43.8412 17.765 43.6405 17.2376 43.2392 16.883C42.8378 16.519 42.3292 16.337 41.7132 16.337ZM54.2089 15.315L52.8509 23.001H51.5629L51.8709 21.223C51.5723 21.839 51.1429 22.3103 50.5829 22.637C50.0229 22.9636 49.4163 23.127 48.7629 23.127C48.0069 23.127 47.4049 22.917 46.9569 22.497C46.5183 22.0676 46.2989 21.4516 46.2989 20.649C46.2989 20.3316 46.3223 20.047 46.3689 19.795L47.1669 15.315H48.4409L47.6709 19.669C47.6336 19.865 47.6149 20.075 47.6149 20.299C47.6149 20.8683 47.7736 21.307 48.0909 21.615C48.4083 21.9136 48.8563 22.063 49.4349 22.063C50.0976 22.063 50.6669 21.8623 51.1429 21.461C51.6283 21.0503 51.9643 20.453 52.1509 19.669L52.9209 15.315H54.2089ZM61.5163 23.113C60.6203 23.113 59.9063 22.8423 59.3743 22.301C58.8423 21.7503 58.5763 20.999 58.5763 20.047C58.5763 19.8043 58.6089 19.4776 58.6743 19.067C58.8143 18.283 59.0849 17.6016 59.4863 17.023C59.8876 16.435 60.3776 15.987 60.9563 15.679C61.5443 15.371 62.1789 15.217 62.8603 15.217C63.6163 15.217 64.2229 15.4036 64.6803 15.777C65.1469 16.1503 65.4269 16.6496 65.5203 17.275L65.8703 15.315H67.1303L65.7443 23.127C65.6229 23.8363 65.3663 24.4663 64.9743 25.017C64.5823 25.5676 64.0923 25.997 63.5043 26.305C62.9163 26.613 62.2723 26.767 61.5723 26.767C60.5456 26.767 59.7429 26.515 59.1643 26.011C58.5949 25.5163 58.2776 24.8443 58.2123 23.995H59.4723C59.5469 24.5083 59.7663 24.9096 60.1303 25.199C60.4943 25.4976 60.9983 25.647 61.6423 25.647C62.3423 25.647 62.9583 25.4276 63.4903 24.989C64.0223 24.5503 64.3536 23.9296 64.4843 23.127L64.8623 21.041C64.5543 21.6663 64.1016 22.1703 63.5043 22.553C62.9163 22.9263 62.2536 23.113 61.5163 23.113ZM63.0703 16.337C62.2769 16.337 61.6003 16.589 61.0403 17.093C60.4803 17.597 60.1256 18.2876 59.9763 19.165C59.9296 19.4263 59.9063 19.655 59.9063 19.851C59.9063 20.5136 60.0976 21.0316 60.4803 21.405C60.8723 21.7783 61.4043 21.965 62.0763 21.965C62.5709 21.965 63.0376 21.853 63.4763 21.629C63.9149 21.3956 64.2836 21.069 64.5823 20.649C64.8903 20.2196 65.0956 19.725 65.1983 19.165C65.2356 18.9783 65.2543 18.773 65.2543 18.549C65.2543 17.877 65.0536 17.3403 64.6523 16.939C64.2603 16.5376 63.7329 16.337 63.0703 16.337ZM75.9199 15.315L74.5619 23.001H73.2739L73.5819 21.223C73.2832 21.839 72.8539 22.3103 72.2939 22.637C71.7339 22.9636 71.1272 23.127 70.4739 23.127C69.7179 23.127 69.1159 22.917 68.6679 22.497C68.2292 22.0676 68.0099 21.4516 68.0099 20.649C68.0099 20.3316 68.0332 20.047 68.0799 19.795L68.8779 15.315H70.1519L69.3819 19.669C69.3445 19.865 69.3259 20.075 69.3259 20.299C69.3259 20.8683 69.4845 21.307 69.8019 21.615C70.1192 21.9136 70.5672 22.063 71.1459 22.063C71.8085 22.063 72.3779 21.8623 72.8539 21.461C73.3392 21.0503 73.6752 20.453 73.8619 19.669L74.6319 15.315H75.9199ZM78.3262 15.315L79.7542 21.363L83.1282 15.315H84.5422L77.9762 26.641H76.5342L78.8022 22.875L76.8982 15.315H78.3262ZM87.8119 15.217C88.7732 15.217 89.5059 15.4456 90.0099 15.903C90.5139 16.351 90.7706 16.9576 90.7799 17.723H89.5199C89.5386 17.2563 89.3892 16.8783 89.0719 16.589C88.7639 16.2996 88.3066 16.155 87.6999 16.155C87.2332 16.155 86.8552 16.2716 86.5659 16.505C86.2859 16.729 86.1459 17.0276 86.1459 17.401C86.1459 17.6436 86.2252 17.8443 86.3839 18.003C86.5426 18.1523 86.7386 18.2783 86.9719 18.381C87.2052 18.4743 87.5226 18.577 87.9239 18.689C88.4372 18.829 88.8526 18.969 89.1699 19.109C89.4966 19.249 89.7719 19.4543 89.9959 19.725C90.2199 19.9956 90.3319 20.3503 90.3319 20.789C90.3319 20.8916 90.3132 21.0643 90.2759 21.307C90.1732 21.839 89.8792 22.273 89.3939 22.609C88.9179 22.9356 88.2926 23.099 87.5179 23.099C86.5472 23.099 85.7772 22.8796 85.2079 22.441C84.6479 21.993 84.3726 21.3816 84.3819 20.607H85.6419C85.6046 21.0736 85.7586 21.4516 86.1039 21.741C86.4586 22.0303 86.9719 22.175 87.6439 22.175C88.1106 22.175 88.4746 22.0583 88.7359 21.825C88.9972 21.5916 89.1279 21.293 89.1279 20.929C89.1279 20.649 89.0439 20.4203 88.8759 20.243C88.7079 20.0656 88.5026 19.9303 88.2599 19.837C88.0172 19.7343 87.6812 19.6223 87.2519 19.501C86.7666 19.361 86.3699 19.2303 86.0619 19.109C85.7632 18.9783 85.5066 18.787 85.2919 18.535C85.0866 18.283 84.9839 17.9516 84.9839 17.541C84.9839 17.3916 84.9979 17.233 85.0259 17.065C85.1192 16.5143 85.4086 16.071 85.8939 15.735C86.3886 15.3896 87.0279 15.217 87.8119 15.217ZM100.398 15.189C101.154 15.189 101.751 15.399 102.19 15.819C102.638 16.2296 102.862 16.8363 102.862 17.639C102.862 17.9096 102.834 18.2083 102.778 18.535L102.008 23.001H100.734L101.504 18.647C101.541 18.451 101.56 18.2456 101.56 18.031C101.56 17.4616 101.401 17.0276 101.084 16.729C100.766 16.421 100.318 16.267 99.7396 16.267C99.0862 16.267 98.5169 16.463 98.0316 16.855C97.5556 17.2376 97.2242 17.807 97.0376 18.563L96.2536 23.001H94.9656L96.7856 12.641H98.0736L97.2896 17.093C97.5976 16.477 98.0269 16.0056 98.5776 15.679C99.1376 15.3523 99.7442 15.189 100.398 15.189ZM108.428 15.217C109.184 15.217 109.795 15.4083 110.262 15.791C110.728 16.1643 111.008 16.659 111.102 17.275L111.452 15.315H112.712L111.354 23.001H110.08L110.43 21.041C110.131 21.657 109.688 22.1563 109.1 22.539C108.512 22.9123 107.844 23.099 107.098 23.099C106.192 23.099 105.474 22.833 104.942 22.301C104.419 21.7596 104.158 21.0176 104.158 20.075C104.158 19.7296 104.19 19.3936 104.256 19.067C104.396 18.283 104.666 17.6016 105.068 17.023C105.469 16.435 105.959 15.987 106.538 15.679C107.126 15.371 107.756 15.217 108.428 15.217ZM108.652 16.351C107.858 16.351 107.182 16.603 106.622 17.107C106.062 17.6016 105.707 18.2876 105.558 19.165C105.511 19.4263 105.488 19.655 105.488 19.851C105.488 20.523 105.679 21.0456 106.062 21.419C106.444 21.7923 106.976 21.979 107.658 21.979C108.152 21.979 108.619 21.8623 109.058 21.629C109.496 21.3956 109.865 21.069 110.164 20.649C110.462 20.2196 110.663 19.725 110.766 19.165C110.803 18.969 110.822 18.759 110.822 18.535C110.822 17.863 110.621 17.331 110.22 16.939C109.828 16.547 109.305 16.351 108.652 16.351ZM116.461 21.643L119.961 15.315H121.333L116.965 23.001H115.453L113.801 15.315H115.173L116.461 21.643ZM125.989 15.217C126.652 15.217 127.216 15.343 127.683 15.595C128.15 15.8376 128.5 16.1736 128.733 16.603C128.976 17.023 129.097 17.5036 129.097 18.045C129.097 18.2876 129.078 18.5163 129.041 18.731C128.985 19.0203 128.92 19.2536 128.845 19.431H122.727C122.69 19.711 122.671 19.9116 122.671 20.033C122.671 20.705 122.862 21.2136 123.245 21.559C123.637 21.895 124.132 22.063 124.729 22.063C125.336 22.063 125.877 21.909 126.353 21.601C126.829 21.2836 127.16 20.8636 127.347 20.341H128.705C128.406 21.1623 127.893 21.8296 127.165 22.343C126.437 22.847 125.583 23.099 124.603 23.099C123.632 23.099 122.862 22.8283 122.293 22.287C121.724 21.7456 121.439 20.9943 121.439 20.033C121.439 19.7343 121.467 19.4263 121.523 19.109C121.663 18.3156 121.948 17.625 122.377 17.037C122.806 16.449 123.334 16.001 123.959 15.693C124.584 15.3756 125.261 15.217 125.989 15.217ZM127.753 18.815C127.809 18.563 127.837 18.3296 127.837 18.115C127.837 17.5083 127.641 17.0463 127.249 16.729C126.866 16.4116 126.386 16.253 125.807 16.253C125.116 16.253 124.491 16.4723 123.931 16.911C123.371 17.3403 123.002 17.975 122.825 18.815H127.753ZM135.383 15.189C136.139 15.189 136.737 15.4036 137.175 15.833C137.623 16.253 137.847 16.869 137.847 17.681C137.847 17.989 137.824 18.2736 137.777 18.535L136.979 23.001H135.705L136.475 18.647C136.513 18.451 136.531 18.241 136.531 18.017C136.531 17.4476 136.373 17.0136 136.055 16.715C135.738 16.4163 135.29 16.267 134.711 16.267C134.011 16.267 133.414 16.4956 132.919 16.953C132.425 17.401 132.103 18.059 131.953 18.927V18.871L131.225 23.001H129.937L131.295 15.315H132.583L132.261 17.121C132.569 16.4956 133.003 16.0196 133.563 15.693C134.123 15.357 134.73 15.189 135.383 15.189ZM140.683 11.969C140.693 12.053 140.697 12.1743 140.697 12.333C140.697 12.669 140.669 12.977 140.613 13.257C140.52 13.7796 140.329 14.1763 140.039 14.447C139.759 14.7083 139.386 14.839 138.919 14.839L139.017 14.265C139.26 14.265 139.447 14.2043 139.577 14.083C139.708 13.9523 139.797 13.7563 139.843 13.495L139.899 13.173H139.199L139.395 11.969H140.683ZM143.354 20.593C143.326 20.7703 143.312 20.929 143.312 21.069C143.312 21.3676 143.391 21.5776 143.55 21.699C143.718 21.8203 143.988 21.881 144.362 21.881H145.146L144.936 23.001H143.984C143.33 23.001 142.836 22.8703 142.5 22.609C142.173 22.3476 142.01 21.9183 142.01 21.321C142.01 21.0503 142.033 20.7983 142.08 20.565L142.822 16.421H141.674L141.856 15.315H143.018L143.354 13.397H144.628L144.292 15.315H146.28L146.084 16.421H144.096L143.354 20.593ZM24.182 44.001L26.016 33.641H27.29L26.464 38.275C26.772 37.6496 27.22 37.1503 27.808 36.777C28.396 36.4036 29.0633 36.217 29.81 36.217C30.6967 36.217 31.4013 36.483 31.924 37.015C32.456 37.547 32.722 38.2796 32.722 39.213C32.722 39.5116 32.694 39.829 32.638 40.165C32.498 40.9676 32.2227 41.6676 31.812 42.265C31.4107 42.853 30.9113 43.3056 30.314 43.623C29.726 43.9403 29.0913 44.099 28.41 44.099C27.6727 44.099 27.0753 43.9123 26.618 43.539C26.17 43.1656 25.8993 42.6663 25.806 42.041L25.456 44.001H24.182ZM28.242 42.979C29.0353 42.979 29.712 42.7316 30.272 42.237C30.8413 41.733 31.2007 41.0423 31.35 40.165C31.3873 39.9503 31.406 39.7216 31.406 39.479C31.406 38.807 31.2147 38.2843 30.832 37.911C30.4493 37.5376 29.922 37.351 29.25 37.351C28.746 37.351 28.2747 37.4676 27.836 37.701C27.3973 37.925 27.0287 38.2516 26.73 38.681C26.4313 39.1103 26.2307 39.605 26.128 40.165C26.0907 40.361 26.072 40.571 26.072 40.795C26.072 41.467 26.268 41.999 26.66 42.391C27.0613 42.783 27.5887 42.979 28.242 42.979ZM38.5573 36.217C39.2199 36.217 39.7846 36.343 40.2513 36.595C40.7179 36.8376 41.0679 37.1736 41.3013 37.603C41.5439 38.023 41.6653 38.5036 41.6653 39.045C41.6653 39.2876 41.6466 39.5163 41.6093 39.731C41.5533 40.0203 41.4879 40.2536 41.4133 40.431H35.2953C35.2579 40.711 35.2393 40.9116 35.2393 41.033C35.2393 41.705 35.4306 42.2136 35.8133 42.559C36.2053 42.895 36.6999 43.063 37.2973 43.063C37.9039 43.063 38.4453 42.909 38.9213 42.601C39.3973 42.2836 39.7286 41.8636 39.9153 41.341H41.2733C40.9746 42.1623 40.4613 42.8296 39.7333 43.343C39.0053 43.847 38.1513 44.099 37.1713 44.099C36.2006 44.099 35.4306 43.8283 34.8613 43.287C34.2919 42.7456 34.0073 41.9943 34.0073 41.033C34.0073 40.7343 34.0353 40.4263 34.0913 40.109C34.2313 39.3156 34.5159 38.625 34.9453 38.037C35.3746 37.449 35.9019 37.001 36.5273 36.693C37.1526 36.3756 37.8293 36.217 38.5573 36.217ZM40.3213 39.815C40.3773 39.563 40.4053 39.3296 40.4053 39.115C40.4053 38.5083 40.2093 38.0463 39.8173 37.729C39.4346 37.4116 38.9539 37.253 38.3753 37.253C37.6846 37.253 37.0593 37.4723 36.4993 37.911C35.9393 38.3403 35.5706 38.975 35.3933 39.815H40.3213ZM47.2936 36.217C47.9563 36.217 48.5209 36.343 48.9876 36.595C49.4543 36.8376 49.8043 37.1736 50.0376 37.603C50.2803 38.023 50.4016 38.5036 50.4016 39.045C50.4016 39.2876 50.3829 39.5163 50.3456 39.731C50.2896 40.0203 50.2243 40.2536 50.1496 40.431H44.0316C43.9943 40.711 43.9756 40.9116 43.9756 41.033C43.9756 41.705 44.1669 42.2136 44.5496 42.559C44.9416 42.895 45.4363 43.063 46.0336 43.063C46.6403 43.063 47.1816 42.909 47.6576 42.601C48.1336 42.2836 48.4649 41.8636 48.6516 41.341H50.0096C49.7109 42.1623 49.1976 42.8296 48.4696 43.343C47.7416 43.847 46.8876 44.099 45.9076 44.099C44.9369 44.099 44.1669 43.8283 43.5976 43.287C43.0283 42.7456 42.7436 41.9943 42.7436 41.033C42.7436 40.7343 42.7716 40.4263 42.8276 40.109C42.9676 39.3156 43.2523 38.625 43.6816 38.037C44.1109 37.449 44.6383 37.001 45.2636 36.693C45.8889 36.3756 46.5656 36.217 47.2936 36.217ZM49.0576 39.815C49.1136 39.563 49.1416 39.3296 49.1416 39.115C49.1416 38.5083 48.9456 38.0463 48.5536 37.729C48.1709 37.4116 47.6903 37.253 47.1116 37.253C46.4209 37.253 45.7956 37.4723 45.2356 37.911C44.6756 38.3403 44.3069 38.975 44.1296 39.815H49.0576ZM56.6879 36.189C57.4439 36.189 58.0413 36.4036 58.4799 36.833C58.9279 37.253 59.1519 37.869 59.1519 38.681C59.1519 38.989 59.1286 39.2736 59.0819 39.535L58.2839 44.001H57.0099L57.7799 39.647C57.8173 39.451 57.8359 39.241 57.8359 39.017C57.8359 38.4476 57.6773 38.0136 57.3599 37.715C57.0426 37.4163 56.5946 37.267 56.0159 37.267C55.3159 37.267 54.7186 37.4956 54.2239 37.953C53.7293 38.401 53.4073 39.059 53.2579 39.927V39.871L52.5299 44.001H51.2419L52.5999 36.315H53.8879L53.5659 38.121C53.8739 37.4956 54.3079 37.0196 54.8679 36.693C55.4279 36.357 56.0346 36.189 56.6879 36.189ZM66.847 33.641L65.027 44.001H63.739L65.559 33.641H66.847ZM68.5039 34.215C68.5039 33.9443 68.6019 33.7203 68.7979 33.543C68.9939 33.3656 69.2366 33.277 69.5259 33.277C69.7593 33.277 69.9413 33.3376 70.0719 33.459C70.2026 33.571 70.2679 33.7203 70.2679 33.907C70.2679 34.1776 70.1699 34.4016 69.9739 34.579C69.7779 34.7563 69.5353 34.845 69.2459 34.845C69.0126 34.845 68.8306 34.789 68.6999 34.677C68.5693 34.5556 68.5039 34.4016 68.5039 34.215ZM69.6239 36.315L68.2659 44.001H66.9919L68.3499 36.315H69.6239ZM73.7025 36.217C74.6638 36.217 75.3965 36.4456 75.9005 36.903C76.4045 37.351 76.6612 37.9576 76.6705 38.723H75.4105C75.4292 38.2563 75.2798 37.8783 74.9625 37.589C74.6545 37.2996 74.1972 37.155 73.5905 37.155C73.1238 37.155 72.7458 37.2716 72.4565 37.505C72.1765 37.729 72.0365 38.0276 72.0365 38.401C72.0365 38.6436 72.1158 38.8443 72.2745 39.003C72.4332 39.1523 72.6292 39.2783 72.8625 39.381C73.0958 39.4743 73.4132 39.577 73.8145 39.689C74.3278 39.829 74.7432 39.969 75.0605 40.109C75.3872 40.249 75.6625 40.4543 75.8865 40.725C76.1105 40.9956 76.2225 41.3503 76.2225 41.789C76.2225 41.8916 76.2038 42.0643 76.1665 42.307C76.0638 42.839 75.7698 43.273 75.2845 43.609C74.8085 43.9356 74.1832 44.099 73.4085 44.099C72.4378 44.099 71.6678 43.8796 71.0985 43.441C70.5385 42.993 70.2632 42.3816 70.2725 41.607H71.5325C71.4952 42.0736 71.6492 42.4516 71.9945 42.741C72.3492 43.0303 72.8625 43.175 73.5345 43.175C74.0012 43.175 74.3652 43.0583 74.6265 42.825C74.8878 42.5916 75.0185 42.293 75.0185 41.929C75.0185 41.649 74.9345 41.4203 74.7665 41.243C74.5985 41.0656 74.3932 40.9303 74.1505 40.837C73.9078 40.7343 73.5718 40.6223 73.1425 40.501C72.6572 40.361 72.2605 40.2303 71.9525 40.109C71.6538 39.9783 71.3972 39.787 71.1825 39.535C70.9772 39.283 70.8745 38.9516 70.8745 38.541C70.8745 38.3916 70.8885 38.233 70.9165 38.065C71.0098 37.5143 71.2992 37.071 71.7845 36.735C72.2792 36.3896 72.9185 36.217 73.7025 36.217ZM79.2872 41.593C79.2592 41.7703 79.2452 41.929 79.2452 42.069C79.2452 42.3676 79.3245 42.5776 79.4832 42.699C79.6512 42.8203 79.9219 42.881 80.2952 42.881H81.0792L80.8692 44.001H79.9172C79.2639 44.001 78.7692 43.8703 78.4332 43.609C78.1065 43.3476 77.9432 42.9183 77.9432 42.321C77.9432 42.0503 77.9665 41.7983 78.0132 41.565L78.7552 37.421H77.6072L77.7892 36.315H78.9512L79.2872 34.397H80.5612L80.2252 36.315H82.2132L82.0172 37.421H80.0292L79.2872 41.593ZM87.3659 36.217C88.0285 36.217 88.5932 36.343 89.0599 36.595C89.5265 36.8376 89.8765 37.1736 90.1099 37.603C90.3525 38.023 90.4739 38.5036 90.4739 39.045C90.4739 39.2876 90.4552 39.5163 90.4179 39.731C90.3619 40.0203 90.2965 40.2536 90.2219 40.431H84.1039C84.0665 40.711 84.0479 40.9116 84.0479 41.033C84.0479 41.705 84.2392 42.2136 84.6219 42.559C85.0139 42.895 85.5085 43.063 86.1059 43.063C86.7125 43.063 87.2539 42.909 87.7299 42.601C88.2059 42.2836 88.5372 41.8636 88.7239 41.341H90.0819C89.7832 42.1623 89.2699 42.8296 88.5419 43.343C87.8139 43.847 86.9599 44.099 85.9799 44.099C85.0092 44.099 84.2392 43.8283 83.6699 43.287C83.1005 42.7456 82.8159 41.9943 82.8159 41.033C82.8159 40.7343 82.8439 40.4263 82.8999 40.109C83.0399 39.3156 83.3245 38.625 83.7539 38.037C84.1832 37.449 84.7105 37.001 85.3359 36.693C85.9612 36.3756 86.6379 36.217 87.3659 36.217ZM89.1299 39.815C89.1859 39.563 89.2139 39.3296 89.2139 39.115C89.2139 38.5083 89.0179 38.0463 88.6259 37.729C88.2432 37.4116 87.7625 37.253 87.1839 37.253C86.4932 37.253 85.8679 37.4723 85.3079 37.911C84.7479 38.3403 84.3792 38.975 84.2019 39.815H89.1299ZM96.7602 36.189C97.5162 36.189 98.1135 36.4036 98.5522 36.833C99.0002 37.253 99.2242 37.869 99.2242 38.681C99.2242 38.989 99.2009 39.2736 99.1542 39.535L98.3562 44.001H97.0822L97.8522 39.647C97.8895 39.451 97.9082 39.241 97.9082 39.017C97.9082 38.4476 97.7495 38.0136 97.4322 37.715C97.1149 37.4163 96.6669 37.267 96.0882 37.267C95.3882 37.267 94.7909 37.4956 94.2962 37.953C93.8015 38.401 93.4795 39.059 93.3302 39.927V39.871L92.6022 44.001H91.3142L92.6722 36.315H93.9602L93.6382 38.121C93.9462 37.4956 94.3802 37.0196 94.9402 36.693C95.5002 36.357 96.1069 36.189 96.7602 36.189ZM101.822 34.215C101.822 33.9443 101.92 33.7203 102.116 33.543C102.312 33.3656 102.555 33.277 102.844 33.277C103.078 33.277 103.26 33.3376 103.39 33.459C103.521 33.571 103.586 33.7203 103.586 33.907C103.586 34.1776 103.488 34.4016 103.292 34.579C103.096 34.7563 102.854 34.845 102.564 34.845C102.331 34.845 102.149 34.789 102.018 34.677C101.888 34.5556 101.822 34.4016 101.822 34.215ZM102.942 36.315L101.584 44.001H100.31L101.668 36.315H102.942ZM109.065 36.189C109.821 36.189 110.418 36.4036 110.857 36.833C111.305 37.253 111.529 37.869 111.529 38.681C111.529 38.989 111.506 39.2736 111.459 39.535L110.661 44.001H109.387L110.157 39.647C110.194 39.451 110.213 39.241 110.213 39.017C110.213 38.4476 110.054 38.0136 109.737 37.715C109.42 37.4163 108.972 37.267 108.393 37.267C107.693 37.267 107.096 37.4956 106.601 37.953C106.106 38.401 105.784 39.059 105.635 39.927V39.871L104.907 44.001H103.619L104.977 36.315H106.265L105.943 38.121C106.251 37.4956 106.685 37.0196 107.245 36.693C107.805 36.357 108.412 36.189 109.065 36.189ZM115.821 44.113C114.925 44.113 114.211 43.8423 113.679 43.301C113.147 42.7503 112.881 41.999 112.881 41.047C112.881 40.8043 112.914 40.4776 112.979 40.067C113.119 39.283 113.39 38.6016 113.791 38.023C114.192 37.435 114.682 36.987 115.261 36.679C115.849 36.371 116.484 36.217 117.165 36.217C117.921 36.217 118.528 36.4036 118.985 36.777C119.452 37.1503 119.732 37.6496 119.825 38.275L120.175 36.315H121.435L120.049 44.127C119.928 44.8363 119.671 45.4663 119.279 46.017C118.887 46.5676 118.397 46.997 117.809 47.305C117.221 47.613 116.577 47.767 115.877 47.767C114.85 47.767 114.048 47.515 113.469 47.011C112.9 46.5163 112.582 45.8443 112.517 44.995H113.777C113.852 45.5083 114.071 45.9096 114.435 46.199C114.799 46.4976 115.303 46.647 115.947 46.647C116.647 46.647 117.263 46.4276 117.795 45.989C118.327 45.5503 118.658 44.9296 118.789 44.127L119.167 42.041C118.859 42.6663 118.406 43.1703 117.809 43.553C117.221 43.9263 116.558 44.113 115.821 44.113ZM117.375 37.337C116.582 37.337 115.905 37.589 115.345 38.093C114.785 38.597 114.43 39.2876 114.281 40.165C114.234 40.4263 114.211 40.655 114.211 40.851C114.211 41.5136 114.402 42.0316 114.785 42.405C115.177 42.7783 115.709 42.965 116.381 42.965C116.876 42.965 117.342 42.853 117.781 42.629C118.22 42.3956 118.588 42.069 118.887 41.649C119.195 41.2196 119.4 40.725 119.503 40.165C119.54 39.9783 119.559 39.773 119.559 39.549C119.559 38.877 119.358 38.3403 118.957 37.939C118.565 37.5376 118.038 37.337 117.375 37.337ZM127.44 41.593C127.412 41.7703 127.398 41.929 127.398 42.069C127.398 42.3676 127.477 42.5776 127.636 42.699C127.804 42.8203 128.074 42.881 128.448 42.881H129.232L129.022 44.001H128.07C127.416 44.001 126.922 43.8703 126.586 43.609C126.259 43.3476 126.096 42.9183 126.096 42.321C126.096 42.0503 126.119 41.7983 126.166 41.565L126.908 37.421H125.76L125.942 36.315H127.104L127.44 34.397H128.714L128.378 36.315H130.366L130.17 37.421H128.182L127.44 41.593ZM135.588 36.217C136.232 36.217 136.802 36.343 137.296 36.595C137.791 36.847 138.174 37.211 138.444 37.687C138.724 38.1536 138.864 38.7136 138.864 39.367C138.864 39.6563 138.836 39.955 138.78 40.263C138.64 41.047 138.351 41.7283 137.912 42.307C137.483 42.8856 136.951 43.329 136.316 43.637C135.682 43.945 135 44.099 134.272 44.099C133.274 44.099 132.471 43.819 131.864 43.259C131.267 42.699 130.968 41.929 130.968 40.949C130.968 40.669 130.996 40.375 131.052 40.067C131.192 39.283 131.482 38.6016 131.92 38.023C132.359 37.435 132.896 36.987 133.53 36.679C134.174 36.371 134.86 36.217 135.588 36.217ZM135.42 37.337C134.963 37.337 134.52 37.4396 134.09 37.645C133.67 37.8503 133.302 38.1676 132.984 38.597C132.676 39.017 132.466 39.5396 132.354 40.165C132.308 40.445 132.284 40.6783 132.284 40.865C132.284 41.5556 132.485 42.083 132.886 42.447C133.288 42.8016 133.801 42.979 134.426 42.979C134.884 42.979 135.322 42.8763 135.742 42.671C136.162 42.4656 136.526 42.153 136.834 41.733C137.152 41.3036 137.366 40.781 137.478 40.165C137.525 39.885 137.548 39.6516 137.548 39.465C137.548 38.765 137.348 38.2376 136.946 37.883C136.545 37.519 136.036 37.337 135.42 37.337ZM154.049 36.189C154.814 36.189 155.416 36.399 155.855 36.819C156.294 37.239 156.513 37.8503 156.513 38.653C156.513 38.9143 156.485 39.2083 156.429 39.535L155.645 44.001H154.371L155.141 39.647C155.178 39.451 155.197 39.2456 155.197 39.031C155.197 38.471 155.043 38.0463 154.735 37.757C154.436 37.4583 154.016 37.309 153.475 37.309C152.794 37.309 152.21 37.533 151.725 37.981C151.249 38.4196 150.936 39.0683 150.787 39.927L150.059 44.001H148.799L149.569 39.647C149.606 39.451 149.625 39.2456 149.625 39.031C149.625 38.471 149.471 38.0463 149.163 37.757C148.864 37.4583 148.444 37.309 147.903 37.309C147.222 37.309 146.638 37.533 146.153 37.981C145.677 38.4196 145.364 39.0683 145.215 39.927V39.857L144.487 44.001H143.199L144.557 36.315H145.845L145.537 38.065C145.826 37.4583 146.237 36.9963 146.769 36.679C147.31 36.3523 147.894 36.189 148.519 36.189C149.172 36.189 149.709 36.357 150.129 36.693C150.549 37.029 150.806 37.519 150.899 38.163C151.226 37.5376 151.669 37.0523 152.229 36.707C152.798 36.3616 153.405 36.189 154.049 36.189ZM162.397 36.217C163.06 36.217 163.624 36.343 164.091 36.595C164.558 36.8376 164.908 37.1736 165.141 37.603C165.384 38.023 165.505 38.5036 165.505 39.045C165.505 39.2876 165.486 39.5163 165.449 39.731C165.393 40.0203 165.328 40.2536 165.253 40.431H159.135C159.098 40.711 159.079 40.9116 159.079 41.033C159.079 41.705 159.27 42.2136 159.653 42.559C160.045 42.895 160.54 43.063 161.137 43.063C161.744 43.063 162.285 42.909 162.761 42.601C163.237 42.2836 163.568 41.8636 163.755 41.341H165.113C164.814 42.1623 164.301 42.8296 163.573 43.343C162.845 43.847 161.991 44.099 161.011 44.099C160.04 44.099 159.27 43.8283 158.701 43.287C158.132 42.7456 157.847 41.9943 157.847 41.033C157.847 40.7343 157.875 40.4263 157.931 40.109C158.071 39.3156 158.356 38.625 158.785 38.037C159.214 37.449 159.742 37.001 160.367 36.693C160.992 36.3756 161.669 36.217 162.397 36.217ZM164.161 39.815C164.217 39.563 164.245 39.3296 164.245 39.115C164.245 38.5083 164.049 38.0463 163.657 37.729C163.274 37.4116 162.794 37.253 162.215 37.253C161.524 37.253 160.899 37.4723 160.339 37.911C159.779 38.3403 159.41 38.975 159.233 39.815H164.161ZM168.095 32.969C168.105 33.053 168.109 33.1743 168.109 33.333C168.109 33.669 168.081 33.977 168.025 34.257C167.932 34.7796 167.741 35.1763 167.451 35.447C167.171 35.7083 166.798 35.839 166.331 35.839L166.429 35.265C166.672 35.265 166.859 35.2043 166.989 35.083C167.12 34.9523 167.209 34.7563 167.255 34.495L167.311 34.173H166.611L166.807 32.969H168.095ZM169.985 32.969C169.995 33.053 169.999 33.179 169.999 33.347C169.999 33.6456 169.976 33.949 169.929 34.257C169.836 34.7796 169.645 35.1763 169.355 35.447C169.066 35.7083 168.688 35.839 168.221 35.839L168.319 35.265C168.562 35.265 168.749 35.2043 168.879 35.083C169.01 34.9523 169.099 34.7563 169.145 34.495L169.201 34.173H168.501L168.697 32.969H169.985Z" fill="white"/>
<path d="M10 2.00098H191V-1.99902H10V2.00098ZM199 10.001V48.001H203V10.001H199ZM191 56.001H10V60.001H191V56.001ZM2 48.001V10.001H-2V48.001H2ZM10 56.001C5.58172 56.001 2 52.4193 2 48.001H-2C-2 54.6284 3.37258 60.001 10 60.001V56.001ZM199 48.001C199 52.4193 195.418 56.001 191 56.001V60.001C197.627 60.001 203 54.6284 203 48.001H199ZM191 2.00098C195.418 2.00098 199 5.5827 199 10.001H203C203 3.37356 197.627 -1.99902 191 -1.99902V2.00098ZM10 -1.99902C3.37258 -1.99902 -2 3.37356 -2 10.001H2C2 5.5827 5.58172 2.00098 10 2.00098V-1.99902Z" fill="url(#paint1_linear)"/>
</g>
<defs>
<filter id="filter0_b" x="-5" y="-4.99902" width="211" height="68" filterUnits="userSpaceOnUse" color-interpolation-filters="sRGB">
<feFlood flood-opacity="0" result="BackgroundImageFix"/>
<feGaussianBlur in="BackgroundImage" stdDeviation="2.5"/>
<feComposite in2="SourceAlpha" operator="in" result="effect1_backgroundBlur"/>
<feBlend mode="normal" in="SourceGraphic" in2="effect1_backgroundBlur" result="shape"/>
</filter>
<linearGradient id="paint0_linear" x1="17.0491" y1="4.2267" x2="102.023" y2="121.143" gradientUnits="userSpaceOnUse">
<stop stop-color="#EFEFEF" stop-opacity="0.35"/>
<stop offset="1" stop-color="#EFEFEF" stop-opacity="0.1"/>
</linearGradient>
<linearGradient id="paint1_linear" x1="187.361" y1="55.8467" x2="101.726" y2="-63.1895" gradientUnits="userSpaceOnUse">
<stop stop-color="#EFEFEF" stop-opacity="0"/>
<stop offset="1" stop-color="#E5E5E5" stop-opacity="0.26"/>
</linearGradient>
</defs>
</svg>
