<svg width="21" height="21" viewBox="0 0 21 21" fill="none" xmlns="http://www.w3.org/2000/svg">
<path d="M7.64844 0.921875L8.1875 1.48438C8.97108 2.34632 9.34417 3.43838 9.42969 4.53125L12.4766 7.57812C14.3306 7.24901 16.3229 7.76824 17.75 9.19531L18.2891 9.73438L17.75 10.25L14.5156 13.4844L20.75 19.6953V20.75H19.6953L13.4844 14.5156L10.3203 17.6797L9.80469 18.2188L9.26562 17.6797C7.69382 16.1079 7.2474 13.9488 7.71875 12.0078L5.04688 9.33594C3.74379 9.49074 2.41177 9.11489 1.46094 8.16406L0.945312 7.625L1.46094 7.08594L7.08594 1.46094L7.64844 0.921875ZM7.48438 3.21875L3.21875 7.48438C3.83784 7.83462 4.50554 8.0533 5.1875 7.88281L5.60938 7.76562L5.91406 8.07031L9.05469 11.2109L9.38281 11.5391L9.24219 11.9844C8.80147 13.3065 9.00566 14.7972 9.875 16.0156L16.0156 9.875C14.9249 9.12533 13.6117 8.78098 12.3828 9.10156L11.9844 9.21875L11.6797 8.91406L8.21094 5.44531L8 5.23438V4.92969C8 4.32752 7.78043 3.75715 7.48438 3.21875Z" fill="#D9D9D9" fill-opacity="0.5"/>
</svg>
