<svg width="138" height="142" viewBox="0 0 138 142" fill="none" xmlns="http://www.w3.org/2000/svg">
<circle cx="82" cy="65.001" r="30" fill="#493B64"/>
<g filter="url(#filter0_b)">
<rect x="35" y="31.9756" width="70" height="70" rx="15" transform="rotate(30 35 31.9756)" fill="url(#paint0_linear)"/>
<g clip-path="url(#clip0)">
<path d="M52.6016 69.9238L51.2484 69.1425L53.5922 65.083C54.5246 63.4681 54.7773 61.5488 54.2946 59.7476C53.812 57.9463 52.6335 56.4106 51.0186 55.4782C49.4036 54.5458 47.4844 54.2931 45.6831 54.7757C43.8819 55.2584 42.3461 56.4368 41.4137 58.0518L39.07 62.1113L37.7168 61.33L40.0605 57.2705C41.2001 55.2967 43.0772 53.8564 45.2787 53.2665C47.4803 52.6766 49.826 52.9854 51.7998 54.125C53.7737 55.2646 55.214 57.1416 55.8039 59.3432C56.3938 61.5447 56.085 63.8904 54.9454 65.8643L52.6016 69.9238Z" fill="url(#paint1_linear)"/>
<path d="M61.7799 97.7754L29.304 79.0254C28.5862 78.611 27.7332 78.4987 26.9327 78.7132C26.1321 78.9277 25.4496 79.4515 25.0352 80.1692L20.3477 88.2882C19.9333 89.006 19.821 89.859 20.0355 90.6595C20.25 91.4601 20.7737 92.1426 21.4915 92.557L53.9674 111.307C54.6852 111.721 55.5382 111.834 56.3387 111.619C57.1393 111.405 57.8219 110.881 58.2363 110.163L62.9238 102.044C63.3382 101.326 63.4505 100.473 63.236 99.6729C63.0214 98.8724 62.4977 98.1898 61.7799 97.7754ZM28.2854 90.1647C27.8839 89.9329 27.5602 89.5873 27.3552 89.1716C27.1502 88.7558 27.073 88.2886 27.1335 87.829C27.194 87.3695 27.3895 86.9381 27.6951 86.5896C28.0007 86.2411 28.4029 85.9911 28.8506 85.8711C29.2984 85.7511 29.7717 85.7666 30.2106 85.9156C30.6496 86.0646 31.0345 86.3404 31.3167 86.7082C31.5988 87.0759 31.7656 87.5191 31.796 87.9817C31.8263 88.4442 31.7188 88.9054 31.487 89.3068C31.1762 89.8452 30.6643 90.238 30.0638 90.3989C29.4634 90.5597 28.8237 90.4755 28.2854 90.1647ZM36.4043 94.8522C36.0029 94.6204 35.6792 94.2748 35.4742 93.8591C35.2692 93.4433 35.192 92.9761 35.2525 92.5165C35.313 92.057 35.5085 91.6256 35.8141 91.2771C36.1197 90.9286 36.5219 90.6786 36.9696 90.5586C37.4174 90.4386 37.8906 90.4541 38.3296 90.6031C38.7685 90.7521 39.1534 91.0279 39.4356 91.3957C39.7178 91.7634 39.8846 92.2066 39.9149 92.6692C39.9453 93.1317 39.8377 93.5929 39.606 93.9943C39.2952 94.5327 38.7832 94.9255 38.1828 95.0864C37.5824 95.2472 36.9427 95.163 36.4043 94.8522ZM44.5233 99.5397C44.1219 99.3079 43.7982 98.9623 43.5932 98.5466C43.3881 98.1308 43.311 97.6636 43.3715 97.204C43.432 96.7445 43.6274 96.3131 43.9331 95.9646C44.2387 95.6161 44.6408 95.3661 45.0886 95.2461C45.5364 95.1261 46.0096 95.1416 46.4486 95.2906C46.8875 95.4396 47.2724 95.7154 47.5546 96.0832C47.8368 96.4509 48.0036 96.8941 48.0339 97.3567C48.0643 97.8192 47.9567 98.2804 47.725 98.6818C47.4142 99.2202 46.9022 99.613 46.3018 99.7739C45.7014 99.9347 45.0617 99.8505 44.5233 99.5397ZM52.6423 104.227C52.2409 103.995 51.9172 103.65 51.7121 103.234C51.5071 102.818 51.43 102.351 51.4905 101.892C51.551 101.432 51.7464 101.001 52.0521 100.652C52.3577 100.304 52.7598 100.054 53.2076 99.9336C53.6553 99.8136 54.1286 99.8291 54.5676 99.9781C55.0065 100.127 55.3914 100.403 55.6736 100.771C55.9558 101.138 56.1226 101.582 56.1529 102.044C56.1832 102.507 56.0757 102.968 55.8439 103.369C55.5331 103.908 55.0212 104.3 54.4208 104.461C53.8204 104.622 53.1806 104.538 52.6423 104.227Z" fill="url(#paint2_linear)"/>
<path d="M55.2038 73.2305L33.5532 60.7305C33.0149 60.4197 32.3751 60.3354 31.7747 60.4963C31.1743 60.6572 30.6624 61.05 30.3516 61.5883L22.1484 75.7966C21.8376 76.3349 21.7534 76.9746 21.9143 77.5751C22.0752 78.1755 22.468 78.6874 23.0063 78.9982L23.6829 79.3888C24.3054 78.3131 25.3292 77.5283 26.5297 77.2067C27.7301 76.885 29.0092 77.0527 30.0861 77.6731L35.4988 80.7981L37.491 77.3475C36.7664 76.7056 36.3059 75.8175 36.1989 74.8554C36.0919 73.8933 36.3459 72.9258 36.9118 72.1403C37.4776 71.3549 38.3149 70.8075 39.2614 70.6043C40.2078 70.4011 41.196 70.5566 42.0344 71.0407C42.8727 71.5247 43.5014 72.3027 43.7987 73.224C44.096 74.1452 44.0406 75.144 43.6433 76.0268C43.246 76.9095 42.5351 77.6133 41.6484 78.0017C40.7617 78.39 39.7623 78.4353 38.8441 78.1288L36.852 81.5793L49.0304 88.6106L56.0617 76.4321C56.3725 75.8938 56.4567 75.254 56.2958 74.6536C56.1349 74.0532 55.7421 73.5413 55.2038 73.2305Z" fill="url(#paint3_linear)"/>
</g>
<rect x="34.817" y="31.2926" width="71" height="71" rx="15.5" transform="rotate(30 34.817 31.2926)" stroke="url(#paint4_linear)"/>
</g>
<defs>
<filter id="filter0_b" x="-3" y="28.9756" width="101.622" height="101.622" filterUnits="userSpaceOnUse" color-interpolation-filters="sRGB">
<feFlood flood-opacity="0" result="BackgroundImageFix"/>
<feGaussianBlur in="BackgroundImage" stdDeviation="1.5"/>
<feComposite in2="SourceAlpha" operator="in" result="effect1_backgroundBlur"/>
<feBlend mode="normal" in="SourceGraphic" in2="effect1_backgroundBlur" result="shape"/>
</filter>
<linearGradient id="paint0_linear" x1="70" y1="31.9756" x2="70" y2="101.976" gradientUnits="userSpaceOnUse">
<stop stop-color="#3A74A5" stop-opacity="0.6"/>
<stop offset="1" stop-color="white" stop-opacity="0.2"/>
</linearGradient>
<linearGradient id="paint1_linear" x1="51.7998" y1="54.125" x2="45.1592" y2="65.6269" gradientUnits="userSpaceOnUse">
<stop stop-color="white" stop-opacity="0.6"/>
<stop offset="1" stop-color="white" stop-opacity="0.3"/>
</linearGradient>
<linearGradient id="paint2_linear" x1="45.542" y1="88.4004" x2="37.7295" y2="101.932" gradientUnits="userSpaceOnUse">
<stop stop-color="white" stop-opacity="0.6"/>
<stop offset="1" stop-color="white" stop-opacity="0.3"/>
</linearGradient>
<linearGradient id="paint3_linear" x1="44.3785" y1="66.9805" x2="33.8316" y2="85.2482" gradientUnits="userSpaceOnUse">
<stop stop-color="white" stop-opacity="0.6"/>
<stop offset="1" stop-color="white" stop-opacity="0.3"/>
</linearGradient>
<linearGradient id="paint4_linear" x1="70" y1="31.9756" x2="70" y2="101.976" gradientUnits="userSpaceOnUse">
<stop stop-color="#3A74A5" stop-opacity="0.6"/>
<stop offset="1" stop-color="white" stop-opacity="0.2"/>
</linearGradient>
<clipPath id="clip0">
<rect width="50" height="50" fill="white" transform="translate(38.6602 45.6357) rotate(30)"/>
</clipPath>
</defs>
</svg>
